<svg xmlns="http://www.w3.org/2000/svg" width="512" height="512" viewBox="0 0 512 512">
<defs><radialGradient id="bg"><stop offset="0" stop-color="#ffffff"/><stop offset="1" stop-color="#fff8f1"/></radialGradient><filter id="shadow"><feDropShadow dx="0" dy="8" stdDeviation="10" flood-opacity=".18"/></filter></defs>
<rect width="512" height="512" rx="72" fill="url(#bg)"/><circle cx="256" cy="245" r="170" fill="#f6d28b" opacity=".35"/>
<g filter="url(#shadow)"><circle cx="156" cy="188" r="15" fill="#ffd84d"/><circle cx="182" cy="192" r="15" fill="#ffd84d"/><circle cx="162" cy="210" r="15" fill="#ffd84d"/><circle cx="188" cy="213" r="15" fill="#ffd84d"/><circle cx="231" cy="158" r="15" fill="#ffd84d"/><circle cx="257" cy="162" r="15" fill="#ffd84d"/><circle cx="237" cy="180" r="15" fill="#ffd84d"/><circle cx="263" cy="183" r="15" fill="#ffd84d"/><circle cx="306" cy="208" r="15" fill="#ffd84d"/><circle cx="332" cy="212" r="15" fill="#ffd84d"/><circle cx="312" cy="230" r="15" fill="#ffd84d"/><circle cx="338" cy="233" r="15" fill="#ffd84d"/><circle cx="191" cy="278" r="15" fill="#ffd84d"/><circle cx="217" cy="282" r="15" fill="#ffd84d"/><circle cx="197" cy="300" r="15" fill="#ffd84d"/><circle cx="223" cy="303" r="15" fill="#ffd84d"/><circle cx="281" cy="288" r="15" fill="#ffd84d"/><circle cx="307" cy="292" r="15" fill="#ffd84d"/><circle cx="287" cy="310" r="15" fill="#ffd84d"/><circle cx="313" cy="313" r="15" fill="#ffd84d"/></g><text x="256" y="435" text-anchor="middle" font-family="Arial, sans-serif" font-size="28" font-weight="700" fill="#272727">Sweet Corn</text></svg>